<svg width="224" height="224" viewBox="0 0 224 224" fill="none" xmlns="http://www.w3.org/2000/svg">
<path d="M209.9 86.8C206.1 82.9 202.2 78.8 200.7 75.3C199.2 71.8 199.3 66.6 199.2 61.3C199.1 51.6 198.9 40.5 191.2 32.8C183.5 25.1 172.4 24.9 162.7 24.8C157.4 24.7 152 24.6 148.7 23.3C145.4 22 141.1 17.9 137.2 14.1C130.3 7.5 122.4 0 112 0C101.6 0 93.7 7.5 86.8 14.1C82.9 17.9 78.8 21.8 75.3 23.3C71.8 24.8 66.6 24.7 61.3 24.8C51.6 24.9 40.5 25.1 32.8 32.8C25.1 40.5 24.9 51.6 24.8 61.3C24.7 66.6 24.6 72 23.3 75.3C22 78.6 17.9 82.9 14.1 86.8C7.5 93.7 0 101.6 0 112C0 122.4 7.5 130.3 14.1 137.2C17.9 141.1 21.8 145.2 23.3 148.7C24.8 152.2 24.7 157.4 24.8 162.7C24.9 172.4 25.1 183.5 32.8 191.2C40.5 198.9 51.6 199.1 61.3 199.2C66.6 199.3 72 199.4 75.3 200.7C78.6 202 82.9 206.1 86.8 209.9C93.7 216.5 101.6 224 112 224C122.4 224 130.3 216.5 137.2 209.9C141.1 206.1 145.2 202.2 148.7 200.7C152.2 199.2 157.4 199.3 162.7 199.2C172.4 199.1 183.5 198.9 191.2 191.2C198.9 183.5 199.1 172.4 199.2 162.7C199.3 157.4 199.4 152 200.7 148.7C202 145.4 206.1 141.1 209.9 137.2C216.5 130.3 224 122.4 224 112C224 101.6 216.5 93.7 209.9 86.8ZM161.5 93.8L102.9 149.8C101.385 151.225 99.3799 152.013 97.3 152C95.2507 152.008 93.2786 151.219 91.8 149.8L62.5 121.8C61.6873 121.091 61.0264 120.225 60.557 119.254C60.0875 118.283 59.8192 117.227 59.7683 116.15C59.7173 115.073 59.8847 113.996 60.2604 112.985C60.636 111.974 61.2122 111.05 61.9543 110.267C62.6965 109.484 63.5891 108.86 64.5787 108.431C65.5683 108.002 66.6344 107.778 67.7129 107.772C68.7914 107.766 69.86 107.978 70.8545 108.395C71.849 108.812 72.7489 109.426 73.5 110.2L97.3 132.9L150.5 82.2C152.056 80.8429 154.075 80.1396 156.137 80.2372C158.199 80.3347 160.144 81.2256 161.564 82.7235C162.985 84.2214 163.771 86.2104 163.759 88.2747C163.747 90.3389 162.938 92.3187 161.5 93.8Z" fill="#1E304E"/>
</svg>
