<svg width="256" height="256" viewBox="0 0 256 256" fill="none" xmlns="http://www.w3.org/2000/svg">
<rect width="256" height="256" rx="20" fill="#1E304E"/>
<path d="M117.36 185.88C116.827 185.88 115.973 185.88 114.8 185.88C113.733 185.987 112.613 186.04 111.44 186.04C110.267 186.04 109.093 185.987 107.92 185.88C106.853 185.773 106.107 185.613 105.68 185.4C104.08 184.653 102.8 183.48 101.84 181.88C100.88 180.173 100.187 178.467 99.76 176.76C99.6533 176.44 99.4933 175.8 99.28 174.84C99.1733 173.88 99.0133 172.92 98.8 171.96C98.5867 170.893 98.3733 169.88 98.16 168.92C97.9467 167.96 97.84 167.32 97.84 167C95.3867 153.027 93.4667 139.053 92.08 125.08C90.8 111 90.0533 96.8133 89.84 82.52C89.84 80.7067 89.9467 78.8933 90.16 77.08C90.3733 75.2667 90.9067 73.56 91.76 71.96C92.2933 70.8933 93.0933 69.9867 94.16 69.24C95.3333 68.4933 96.5067 67.9067 97.68 67.48C99.1733 67.0533 101.893 66.5733 105.84 66.04C109.893 65.5067 114.16 65.0267 118.64 64.6C123.12 64.0667 127.333 63.64 131.28 63.32C135.333 62.8933 138.16 62.6267 139.76 62.52C143.813 62.3067 147.92 62.0933 152.08 61.88C156.24 61.56 160.4 61.5067 164.56 61.72C166.907 61.72 168.72 62.6267 170 64.44C170.533 65.2933 170.907 66.2 171.12 67.16C171.44 68.0133 171.707 68.92 171.92 69.88C172.24 72.0133 172.4 74.1467 172.4 76.28C172.507 78.4133 172.453 80.5467 172.24 82.68C172.027 85.24 171.813 87.8 171.6 90.36C171.387 92.92 171.013 95.4267 170.48 97.88C170.267 99.2667 169.787 100.333 169.04 101.08C167.973 102.147 166.533 102.84 164.72 103.16C164.08 103.373 162.907 103.587 161.2 103.8C159.493 103.907 157.52 104.067 155.28 104.28C153.04 104.387 150.64 104.547 148.08 104.76C145.627 104.867 143.28 104.973 141.04 105.08C138.8 105.187 136.773 105.347 134.96 105.56C133.253 105.773 132.08 105.933 131.44 106.04C131.44 106.573 131.44 107.267 131.44 108.12C131.44 108.867 131.44 109.667 131.44 110.52C131.44 111.373 131.493 112.173 131.6 112.92C131.813 113.667 132.08 114.2 132.4 114.52C132.613 114.84 133.04 114.84 133.68 114.52C134.427 114.2 135.013 114.04 135.44 114.04C140.24 113.187 145.04 112.44 149.84 111.8C154.747 111.16 159.6 110.52 164.4 109.88C165.253 109.773 166.053 109.88 166.8 110.2C167.653 110.413 168.293 110.84 168.72 111.48C169.04 112.013 169.307 112.867 169.52 114.04C169.733 115.107 169.893 116.28 170 117.56C170.213 118.84 170.373 120.067 170.48 121.24C170.587 122.413 170.64 123.32 170.64 123.96C170.747 124.813 170.747 125.667 170.64 126.52C170.64 127.373 170.427 128.12 170 128.76C169.36 129.4 168.667 129.88 167.92 130.2C166.96 130.733 165.36 131.213 163.12 131.64C160.88 131.96 158.48 132.28 155.92 132.6C153.36 132.92 150.907 133.187 148.56 133.4C146.213 133.613 144.56 133.773 143.6 133.88C142.32 133.987 141.04 134.093 139.76 134.2C138.48 134.2 137.2 134.2 135.92 134.2C136.453 137.72 136.88 141.293 137.2 144.92C137.627 148.44 138.213 151.96 138.96 155.48C139.067 156.44 139.333 157.987 139.76 160.12C140.187 162.147 140.613 164.333 141.04 166.68C141.467 168.92 141.787 171.107 142 173.24C142.32 175.267 142.427 176.707 142.32 177.56C142.107 179.16 141.413 180.547 140.24 181.72C139.173 182.893 137.893 183.587 136.4 183.8C133.307 184.333 130.16 184.76 126.96 185.08C123.76 185.4 120.56 185.667 117.36 185.88Z" fill="#FAFAFA"/>
</svg>
