<svg width="32" height="32" viewBox="0 0 32 32" fill="none" xmlns="http://www.w3.org/2000/svg">
<g clip-path="url(#clip0_97_31)">
<rect width="32" height="32" rx="4" fill="#1E304E"/>
<path d="M13.74 24.396C13.6667 24.396 13.5493 24.396 13.388 24.396C13.2413 24.4107 13.0873 24.418 12.926 24.418C12.7647 24.418 12.6033 24.4107 12.442 24.396C12.2953 24.3813 12.1927 24.3593 12.134 24.33C11.914 24.2273 11.738 24.066 11.606 23.846C11.474 23.6113 11.3787 23.3767 11.32 23.142C11.3053 23.098 11.2833 23.01 11.254 22.878C11.2393 22.746 11.2173 22.614 11.188 22.482C11.1587 22.3353 11.1293 22.196 11.1 22.064C11.0707 21.932 11.056 21.844 11.056 21.8C10.7187 19.8787 10.4547 17.9573 10.264 16.036C10.088 14.1 9.98533 12.1493 9.956 10.184C9.956 9.93467 9.97067 9.68533 10 9.436C10.0293 9.18667 10.1027 8.952 10.22 8.732C10.2933 8.58533 10.4033 8.46067 10.55 8.358C10.7113 8.25533 10.8727 8.17467 11.034 8.116C11.2393 8.05733 11.6133 7.99133 12.156 7.918C12.7133 7.84467 13.3 7.77867 13.916 7.72C14.532 7.64667 15.1113 7.588 15.654 7.544C16.2113 7.48533 16.6 7.44867 16.82 7.434C17.3773 7.40467 17.942 7.37533 18.514 7.346C19.086 7.302 19.658 7.29467 20.23 7.324C20.5527 7.324 20.802 7.44867 20.978 7.698C21.0513 7.81533 21.1027 7.94 21.132 8.072C21.176 8.18933 21.2127 8.314 21.242 8.446C21.286 8.73933 21.308 9.03267 21.308 9.326C21.3227 9.61933 21.3153 9.91267 21.286 10.206C21.2567 10.558 21.2273 10.91 21.198 11.262C21.1687 11.614 21.1173 11.9587 21.044 12.296C21.0147 12.4867 20.9487 12.6333 20.846 12.736C20.6993 12.8827 20.5013 12.978 20.252 13.022C20.164 13.0513 20.0027 13.0807 19.768 13.11C19.5333 13.1247 19.262 13.1467 18.954 13.176C18.646 13.1907 18.316 13.2127 17.964 13.242C17.6267 13.2567 17.304 13.2713 16.996 13.286C16.688 13.3007 16.4093 13.3227 16.16 13.352C15.9253 13.3813 15.764 13.4033 15.676 13.418C15.676 13.4913 15.676 13.5867 15.676 13.704C15.676 13.8067 15.676 13.9167 15.676 14.034C15.676 14.1513 15.6833 14.2613 15.698 14.364C15.7273 14.4667 15.764 14.54 15.808 14.584C15.8373 14.628 15.896 14.628 15.984 14.584C16.0867 14.54 16.1673 14.518 16.226 14.518C16.886 14.4007 17.546 14.298 18.206 14.21C18.8807 14.122 19.548 14.034 20.208 13.946C20.3253 13.9313 20.4353 13.946 20.538 13.99C20.6553 14.0193 20.7433 14.078 20.802 14.166C20.846 14.2393 20.8827 14.3567 20.912 14.518C20.9413 14.6647 20.9633 14.826 20.978 15.002C21.0073 15.178 21.0293 15.3467 21.044 15.508C21.0587 15.6693 21.066 15.794 21.066 15.882C21.0807 15.9993 21.0807 16.1167 21.066 16.234C21.066 16.3513 21.0367 16.454 20.978 16.542C20.89 16.63 20.7947 16.696 20.692 16.74C20.56 16.8133 20.34 16.8793 20.032 16.938C19.724 16.982 19.394 17.026 19.042 17.07C18.69 17.114 18.3527 17.1507 18.03 17.18C17.7073 17.2093 17.48 17.2313 17.348 17.246C17.172 17.2607 16.996 17.2753 16.82 17.29C16.644 17.29 16.468 17.29 16.292 17.29C16.3653 17.774 16.424 18.2653 16.468 18.764C16.5267 19.248 16.6073 19.732 16.71 20.216C16.7247 20.348 16.7613 20.5607 16.82 20.854C16.8787 21.1327 16.9373 21.4333 16.996 21.756C17.0547 22.064 17.0987 22.3647 17.128 22.658C17.172 22.9367 17.1867 23.1347 17.172 23.252C17.1427 23.472 17.0473 23.6627 16.886 23.824C16.7393 23.9853 16.5633 24.0807 16.358 24.11C15.9327 24.1833 15.5 24.242 15.06 24.286C14.62 24.33 14.18 24.3667 13.74 24.396Z" fill="#FAFAFA"/>
</g>
<defs>
<clipPath id="clip0_97_31">
<rect width="32" height="32" rx="4" fill="white"/>
</clipPath>
</defs>
</svg>
