<svg width="225" height="53" viewBox="0 0 225 53" fill="none" xmlns="http://www.w3.org/2000/svg">
    <g clip-path="url(#clip0_97_26)">
        <path
            d="M12.234 47.972C12.054 47.972 11.766 47.972 11.37 47.972C11.01 48.008 10.632 48.026 10.236 48.026C9.84 48.026 9.444 48.008 9.048 47.972C8.688 47.936 8.436 47.882 8.292 47.81C7.752 47.558 7.32 47.162 6.996 46.622C6.672 46.046 6.438 45.47 6.294 44.894C6.258 44.786 6.204 44.57 6.132 44.246C6.096 43.922 6.042 43.598 5.97 43.274C5.898 42.914 5.826 42.572 5.754 42.248C5.682 41.924 5.646 41.708 5.646 41.6C4.818 36.884 4.17 32.168 3.702 27.452C3.27 22.7 3.018 17.912 2.946 13.088C2.946 12.476 2.982 11.864 3.054 11.252C3.126 10.64 3.306 10.064 3.594 9.524C3.774 9.164 4.044 8.858 4.404 8.606C4.8 8.354 5.196 8.156 5.592 8.012C6.096 7.868 7.014 7.706 8.346 7.526C9.714 7.346 11.154 7.184 12.666 7.04C14.178 6.86 15.6 6.716 16.932 6.608C18.3 6.464 19.254 6.374 19.794 6.338C21.162 6.266 22.548 6.194 23.952 6.122C25.356 6.014 26.76 5.996 28.164 6.068C28.956 6.068 29.568 6.374 30 6.986C30.18 7.274 30.306 7.58 30.378 7.904C30.486 8.192 30.576 8.498 30.648 8.822C30.756 9.542 30.81 10.262 30.81 10.982C30.846 11.702 30.828 12.422 30.756 13.142C30.684 14.006 30.612 14.87 30.54 15.734C30.468 16.598 30.342 17.444 30.162 18.272C30.09 18.74 29.928 19.1 29.676 19.352C29.316 19.712 28.83 19.946 28.218 20.054C28.002 20.126 27.606 20.198 27.03 20.27C26.454 20.306 25.788 20.36 25.032 20.432C24.276 20.468 23.466 20.522 22.602 20.594C21.774 20.63 20.982 20.666 20.226 20.702C19.47 20.738 18.786 20.792 18.174 20.864C17.598 20.936 17.202 20.99 16.986 21.026C16.986 21.206 16.986 21.44 16.986 21.728C16.986 21.98 16.986 22.25 16.986 22.538C16.986 22.826 17.004 23.096 17.04 23.348C17.112 23.6 17.202 23.78 17.31 23.888C17.382 23.996 17.526 23.996 17.742 23.888C17.994 23.78 18.192 23.726 18.336 23.726C19.956 23.438 21.576 23.186 23.196 22.97C24.852 22.754 26.49 22.538 28.11 22.322C28.398 22.286 28.668 22.322 28.92 22.43C29.208 22.502 29.424 22.646 29.568 22.862C29.676 23.042 29.766 23.33 29.838 23.726C29.91 24.086 29.964 24.482 30 24.914C30.072 25.346 30.126 25.76 30.162 26.156C30.198 26.552 30.216 26.858 30.216 27.074C30.252 27.362 30.252 27.65 30.216 27.938C30.216 28.226 30.144 28.478 30 28.694C29.784 28.91 29.55 29.072 29.298 29.18C28.974 29.36 28.434 29.522 27.678 29.666C26.922 29.774 26.112 29.882 25.248 29.99C24.384 30.098 23.556 30.188 22.764 30.26C21.972 30.332 21.414 30.386 21.09 30.422C20.658 30.458 20.226 30.494 19.794 30.53C19.362 30.53 18.93 30.53 18.498 30.53C18.678 31.718 18.822 32.924 18.93 34.148C19.074 35.336 19.272 36.524 19.524 37.712C19.56 38.036 19.65 38.558 19.794 39.278C19.938 39.962 20.082 40.7 20.226 41.492C20.37 42.248 20.478 42.986 20.55 43.706C20.658 44.39 20.694 44.876 20.658 45.164C20.586 45.704 20.352 46.172 19.956 46.568C19.596 46.964 19.164 47.198 18.66 47.27C17.616 47.45 16.554 47.594 15.474 47.702C14.394 47.81 13.314 47.9 12.234 47.972ZM57.8011 45.866C55.8571 46.802 53.7691 47.396 51.5371 47.648C49.3051 47.9 47.1271 47.828 45.0031 47.432C43.3831 47.144 41.7811 46.64 40.1971 45.92C38.6131 45.164 37.2451 44.192 36.0931 43.004C34.6531 41.528 33.5011 39.836 32.6371 37.928C31.7731 35.984 31.1431 34.004 30.7471 31.988C30.0271 28.316 29.9011 24.59 30.3691 20.81C30.8371 16.994 31.7371 13.34 33.0691 9.848C33.1411 9.632 33.2851 9.29 33.5011 8.822C33.7171 8.354 33.9331 8.066 34.1491 7.958C34.9051 7.634 35.6971 7.418 36.5251 7.31C37.3531 7.166 38.1811 7.094 39.0091 7.094C39.8371 7.058 40.6471 7.058 41.4391 7.094C42.2311 7.13 43.0411 7.22 43.8691 7.364C44.4091 7.436 44.9491 7.544 45.4891 7.688C46.0651 7.832 46.5871 8.066 47.0551 8.39C47.2351 8.498 47.3971 8.642 47.5411 8.822C47.6851 8.966 47.7571 9.128 47.7571 9.308C47.7571 9.38 47.7391 9.452 47.7031 9.524C47.6671 9.56 47.6491 9.614 47.6491 9.686C47.2531 11.522 46.7491 13.34 46.1371 15.14C45.5251 16.904 45.0571 18.722 44.7331 20.594C44.4811 21.926 44.3551 23.294 44.3551 24.698C44.3551 26.066 44.5711 27.38 45.0031 28.64C45.2911 29.648 45.7951 30.458 46.5151 31.07C47.0191 31.502 47.5591 31.754 48.1351 31.826C48.7471 31.898 49.3411 31.862 49.9171 31.718C50.4931 31.538 51.0511 31.268 51.5911 30.908C52.1311 30.512 52.5991 30.044 52.9951 29.504C53.4991 28.784 53.8951 28.01 54.1831 27.182C54.5071 26.318 54.7231 25.454 54.8311 24.59C55.0111 23.33 55.1011 22.052 55.1011 20.756C55.1371 19.46 55.1191 18.182 55.0471 16.922C54.9751 15.338 54.8491 13.772 54.6691 12.224C54.5251 10.64 54.3451 9.074 54.1291 7.526C54.0211 6.914 54.2551 6.5 54.8311 6.284C55.4071 6.032 56.0011 5.87 56.6131 5.798C56.8291 5.762 57.2431 5.726 57.8551 5.69C58.4671 5.654 59.1151 5.618 59.7991 5.582C60.5191 5.546 61.1851 5.51 61.7971 5.474C62.4091 5.438 62.8231 5.42 63.0391 5.42C63.2191 5.42 63.4891 5.438 63.8491 5.474C64.2091 5.474 64.5871 5.51 64.9831 5.582C65.3791 5.618 65.7391 5.672 66.0631 5.744C66.4231 5.816 66.6931 5.906 66.8731 6.014C67.1251 6.194 67.3051 6.428 67.4131 6.716C67.5211 7.004 67.6111 7.292 67.6831 7.58C68.4031 11.18 68.8531 14.816 69.0331 18.488C69.2131 22.16 68.9611 25.796 68.2771 29.396C67.9171 31.34 67.3951 33.266 66.7111 35.174C66.0271 37.046 65.1091 38.792 63.9571 40.412C63.1651 41.564 62.2471 42.608 61.2031 43.544C60.1591 44.48 59.0251 45.254 57.8011 45.866ZM88.5212 47.162C88.1612 47.162 87.4592 47.162 86.4152 47.162C85.3712 47.198 84.2552 47.216 83.0672 47.216C81.9152 47.216 80.8172 47.216 79.7732 47.216C78.7292 47.216 78.0272 47.198 77.6672 47.162C77.2712 47.162 76.8752 47.108 76.4792 47C76.1192 46.856 75.7952 46.64 75.5072 46.352C75.2192 46.064 75.0212 45.704 74.9132 45.272C74.8052 44.84 74.7512 44.408 74.7512 43.976C74.7512 39.116 74.8952 34.274 75.1832 29.45C75.4712 24.626 75.7412 19.784 75.9932 14.924C75.8852 14.96 75.6692 14.996 75.3452 15.032C75.0212 15.068 74.6612 15.122 74.2652 15.194C73.9052 15.23 73.5632 15.284 73.2392 15.356C72.9152 15.392 72.6992 15.41 72.5912 15.41C72.4112 15.446 72.1772 15.5 71.8892 15.572C71.6012 15.644 71.2952 15.716 70.9712 15.788C70.6472 15.824 70.3412 15.86 70.0532 15.896C69.8012 15.932 69.6032 15.914 69.4592 15.842C69.2432 15.77 69.0632 15.554 68.9192 15.194C68.8472 15.05 68.7752 14.78 68.7032 14.384C68.6312 13.988 68.5592 13.574 68.4872 13.142C68.4152 12.674 68.3612 12.242 68.3252 11.846C68.2532 11.45 68.2172 11.18 68.2172 11.036C68.1812 10.856 68.1452 10.622 68.1092 10.334C68.0732 10.01 68.0552 9.686 68.0552 9.362C68.0552 9.038 68.0732 8.75 68.1092 8.498C68.1452 8.21 68.2172 7.994 68.3252 7.85C68.4332 7.67 68.6312 7.526 68.9192 7.418C69.2432 7.274 69.5852 7.166 69.9452 7.094C70.3052 6.986 70.6472 6.914 70.9712 6.878C71.3312 6.806 71.6192 6.752 71.8352 6.716C75.1472 6.32 78.4592 6.122 81.7712 6.122C85.0832 6.086 88.4132 6.032 91.7612 5.96C92.4812 5.924 93.1832 5.888 93.8672 5.852C94.5512 5.816 95.2532 5.888 95.9732 6.068C96.1532 6.14 96.3152 6.212 96.4592 6.284C96.6392 6.32 96.7832 6.41 96.8912 6.554C96.9992 6.662 97.0712 6.86 97.1072 7.148C97.1432 7.436 97.1612 7.742 97.1612 8.066C97.1612 8.39 97.1432 8.714 97.1072 9.038C97.1072 9.326 97.1072 9.542 97.1072 9.686C97.1072 9.866 97.0892 10.118 97.0532 10.442C97.0532 10.73 97.0352 11.054 96.9992 11.414C96.9992 11.738 96.9632 12.062 96.8912 12.386C96.8552 12.674 96.7832 12.89 96.6752 13.034C96.4952 13.214 96.1532 13.376 95.6492 13.52C95.1452 13.628 94.7492 13.718 94.4612 13.79C93.7412 13.898 93.0212 13.988 92.3012 14.06C91.5812 14.096 90.8612 14.168 90.1412 14.276C90.1052 14.456 90.1052 14.618 90.1412 14.762C90.1772 14.906 90.1952 15.05 90.1952 15.194C90.4112 19.982 90.6272 24.734 90.8432 29.45C91.0952 34.13 91.3472 38.846 91.5992 43.598C91.6352 44.066 91.6352 44.552 91.5992 45.056C91.5992 45.524 91.4552 45.956 91.1672 46.352C90.8792 46.712 90.4832 46.928 89.9792 47C89.4752 47.108 88.9892 47.162 88.5212 47.162ZM123.666 45.866C121.722 46.802 119.634 47.396 117.402 47.648C115.17 47.9 112.992 47.828 110.868 47.432C109.248 47.144 107.646 46.64 106.062 45.92C104.478 45.164 103.11 44.192 101.958 43.004C100.518 41.528 99.3664 39.836 98.5024 37.928C97.6384 35.984 97.0084 34.004 96.6124 31.988C95.8924 28.316 95.7664 24.59 96.2344 20.81C96.7024 16.994 97.6024 13.34 98.9344 9.848C99.0064 9.632 99.1504 9.29 99.3664 8.822C99.5824 8.354 99.7984 8.066 100.014 7.958C100.77 7.634 101.562 7.418 102.39 7.31C103.218 7.166 104.046 7.094 104.874 7.094C105.702 7.058 106.512 7.058 107.304 7.094C108.096 7.13 108.906 7.22 109.734 7.364C110.274 7.436 110.814 7.544 111.354 7.688C111.93 7.832 112.452 8.066 112.92 8.39C113.1 8.498 113.262 8.642 113.406 8.822C113.55 8.966 113.622 9.128 113.622 9.308C113.622 9.38 113.604 9.452 113.568 9.524C113.532 9.56 113.514 9.614 113.514 9.686C113.118 11.522 112.614 13.34 112.002 15.14C111.39 16.904 110.922 18.722 110.598 20.594C110.346 21.926 110.22 23.294 110.22 24.698C110.22 26.066 110.436 27.38 110.868 28.64C111.156 29.648 111.66 30.458 112.38 31.07C112.884 31.502 113.424 31.754 114 31.826C114.612 31.898 115.206 31.862 115.782 31.718C116.358 31.538 116.916 31.268 117.456 30.908C117.996 30.512 118.464 30.044 118.86 29.504C119.364 28.784 119.76 28.01 120.048 27.182C120.372 26.318 120.588 25.454 120.696 24.59C120.876 23.33 120.966 22.052 120.966 20.756C121.002 19.46 120.984 18.182 120.912 16.922C120.84 15.338 120.714 13.772 120.534 12.224C120.39 10.64 120.21 9.074 119.994 7.526C119.886 6.914 120.12 6.5 120.696 6.284C121.272 6.032 121.866 5.87 122.478 5.798C122.694 5.762 123.108 5.726 123.72 5.69C124.332 5.654 124.98 5.618 125.664 5.582C126.384 5.546 127.05 5.51 127.662 5.474C128.274 5.438 128.688 5.42 128.904 5.42C129.084 5.42 129.354 5.438 129.714 5.474C130.074 5.474 130.452 5.51 130.848 5.582C131.244 5.618 131.604 5.672 131.928 5.744C132.288 5.816 132.558 5.906 132.738 6.014C132.99 6.194 133.17 6.428 133.278 6.716C133.386 7.004 133.476 7.292 133.548 7.58C134.268 11.18 134.718 14.816 134.898 18.488C135.078 22.16 134.826 25.796 134.142 29.396C133.782 31.34 133.26 33.266 132.576 35.174C131.892 37.046 130.974 38.792 129.822 40.412C129.03 41.564 128.112 42.608 127.068 43.544C126.024 44.48 124.89 45.254 123.666 45.866ZM146.848 48.458C146.452 48.53 145.786 48.566 144.85 48.566C143.95 48.602 142.978 48.602 141.934 48.566C140.89 48.53 139.9 48.476 138.964 48.404C138.028 48.368 137.362 48.332 136.966 48.296C136.75 48.296 136.498 48.278 136.21 48.242C135.958 48.206 135.688 48.152 135.4 48.08C135.148 48.008 134.914 47.9 134.698 47.756C134.482 47.648 134.338 47.504 134.266 47.324C134.194 47.108 134.122 46.766 134.05 46.298C134.014 45.794 133.978 45.272 133.942 44.732C133.906 44.192 133.87 43.688 133.834 43.22C133.834 42.716 133.834 42.356 133.834 42.14C133.834 41.78 133.852 41.204 133.888 40.412C133.924 39.584 133.96 38.648 133.996 37.604C134.032 36.524 134.086 35.39 134.158 34.202C134.23 33.014 134.284 31.898 134.32 30.854C134.392 29.774 134.446 28.838 134.482 28.046C134.554 27.218 134.608 26.624 134.644 26.264C134.968 22.34 135.346 18.398 135.778 14.438C135.814 14.078 135.868 13.52 135.94 12.764C136.048 11.972 136.174 11.162 136.318 10.334C136.462 9.506 136.624 8.732 136.804 8.012C136.984 7.292 137.2 6.77 137.452 6.446C137.704 6.122 138.082 5.888 138.586 5.744C138.91 5.636 139.234 5.564 139.558 5.528C139.918 5.492 140.278 5.456 140.638 5.42C144.022 5.132 147.424 5.024 150.844 5.096C154.264 5.168 157.63 5.618 160.942 6.446C162.634 6.842 164.182 7.652 165.586 8.876C166.99 10.064 168.106 11.432 168.934 12.98C169.582 14.276 170.032 15.662 170.284 17.138C170.536 18.614 170.59 20.09 170.446 21.566C170.374 22.826 170.158 24.086 169.798 25.346C169.438 26.606 168.934 27.812 168.286 28.964C167.998 29.468 167.71 29.972 167.422 30.476C167.17 30.944 166.864 31.394 166.504 31.826C166.18 32.222 165.82 32.582 165.424 32.906C165.028 33.194 164.632 33.464 164.236 33.716C165.064 34.508 165.73 35.426 166.234 36.47C166.774 37.514 167.188 38.594 167.476 39.71C167.728 40.538 167.962 41.384 168.178 42.248C168.394 43.112 168.538 43.994 168.61 44.894C168.646 45.218 168.628 45.56 168.556 45.92C168.52 46.28 168.376 46.586 168.124 46.838C167.908 47.054 167.656 47.216 167.368 47.324C167.116 47.468 166.846 47.576 166.558 47.648C165.982 47.828 165.406 47.972 164.83 48.08C164.254 48.188 163.66 48.278 163.048 48.35C161.428 48.53 159.808 48.584 158.188 48.512C157.756 48.476 157.306 48.44 156.838 48.404C156.406 48.368 156.028 48.206 155.704 47.918C155.524 47.738 155.398 47.54 155.326 47.324C155.254 47.108 155.182 46.874 155.11 46.622C154.858 45.722 154.642 44.822 154.462 43.922C154.318 42.986 154.156 42.05 153.976 41.114C153.796 40.394 153.562 39.692 153.274 39.008C153.022 38.288 152.644 37.676 152.14 37.172C151.852 36.92 151.546 36.704 151.222 36.524C150.898 36.308 150.538 36.164 150.142 36.092C149.854 36.02 149.566 35.984 149.278 35.984C149.026 35.948 148.756 35.912 148.468 35.876C148.468 36.2 148.468 36.83 148.468 37.766C148.504 38.666 148.522 39.656 148.522 40.736C148.558 41.78 148.576 42.77 148.576 43.706C148.576 44.606 148.576 45.2 148.576 45.488C148.576 45.848 148.558 46.208 148.522 46.568C148.486 46.892 148.378 47.216 148.198 47.54C147.91 48.044 147.46 48.35 146.848 48.458ZM148.414 23.672C149.242 23.78 150.07 23.888 150.898 23.996C151.726 24.068 152.554 24.014 153.382 23.834C153.886 23.726 154.39 23.528 154.894 23.24C155.398 22.952 155.758 22.556 155.974 22.052C156.082 21.764 156.154 21.44 156.19 21.08C156.262 20.684 156.262 20.306 156.19 19.946C156.154 19.55 156.064 19.19 155.92 18.866C155.776 18.542 155.596 18.272 155.38 18.056C154.876 17.624 154.3 17.354 153.652 17.246C153.004 17.102 152.374 16.976 151.762 16.868C151.402 16.796 150.952 16.724 150.412 16.652C149.872 16.544 149.512 16.634 149.332 16.922C149.152 17.21 149.008 17.66 148.9 18.272C148.792 18.884 148.702 19.532 148.63 20.216C148.558 20.9 148.504 21.566 148.468 22.214C148.432 22.862 148.414 23.348 148.414 23.672ZM178.431 48.188C178.215 48.188 177.891 48.206 177.459 48.242C177.063 48.278 176.649 48.296 176.217 48.296C175.821 48.332 175.425 48.314 175.029 48.242C174.669 48.206 174.399 48.116 174.219 47.972C174.039 47.828 173.877 47.576 173.733 47.216C173.589 46.892 173.463 46.532 173.355 46.136C173.247 45.74 173.139 45.344 173.031 44.948C172.959 44.552 172.905 44.246 172.869 44.03C172.617 42.77 172.419 41.492 172.275 40.196C172.131 38.9 171.987 37.604 171.843 36.308C171.519 33.32 171.213 30.35 170.925 27.398C170.637 24.41 170.403 21.422 170.223 18.434C170.187 17.93 170.151 17.228 170.115 16.328C170.079 15.428 170.061 14.492 170.061 13.52C170.061 12.548 170.115 11.63 170.223 10.766C170.331 9.902 170.529 9.272 170.817 8.876C170.997 8.588 171.231 8.372 171.519 8.228C171.843 8.048 172.167 7.904 172.491 7.796C172.815 7.688 173.373 7.58 174.165 7.472C174.993 7.364 175.857 7.256 176.757 7.148C177.693 7.04 178.575 6.968 179.403 6.932C180.231 6.86 180.807 6.824 181.131 6.824C181.275 6.824 181.509 6.842 181.833 6.878C182.157 6.878 182.481 6.896 182.805 6.932C183.129 6.968 183.435 7.022 183.723 7.094C184.011 7.13 184.227 7.184 184.371 7.256C184.551 7.364 184.695 7.526 184.803 7.742C184.947 7.958 185.055 8.174 185.127 8.39C185.199 8.786 185.217 9.182 185.181 9.578C185.145 9.938 185.145 10.316 185.181 10.712C185.433 16.04 185.667 21.386 185.883 26.75C186.135 32.078 186.675 37.37 187.503 42.626C187.575 43.058 187.629 43.49 187.665 43.922C187.737 44.354 187.719 44.768 187.611 45.164C187.431 45.848 187.071 46.388 186.531 46.784C186.099 47.072 185.613 47.27 185.073 47.378C184.569 47.486 184.065 47.594 183.561 47.702C182.697 47.846 181.833 47.936 180.969 47.972C180.141 48.044 179.295 48.116 178.431 48.188ZM210.578 48.188C210.074 48.188 209.3 48.188 208.256 48.188C207.212 48.188 206.024 48.17 204.692 48.134C203.36 48.098 201.956 48.044 200.48 47.972C199.04 47.936 197.654 47.882 196.322 47.81C195.026 47.774 193.856 47.702 192.812 47.594C191.768 47.522 191.012 47.45 190.544 47.378C190.04 47.306 189.536 47.144 189.032 46.892C188.564 46.64 188.186 46.316 187.898 45.92C187.646 45.524 187.484 44.912 187.412 44.084C187.304 43.256 187.25 42.374 187.25 41.438C187.25 40.502 187.286 39.602 187.358 38.738C187.394 37.874 187.43 37.208 187.466 36.74C187.538 35.444 187.628 34.148 187.736 32.852C187.844 31.556 187.988 30.26 188.168 28.964C188.6 25.472 188.996 22.016 189.356 18.596C189.752 15.176 190.274 11.756 190.922 8.336C190.994 8.048 191.192 7.706 191.516 7.31C191.84 6.914 192.146 6.644 192.434 6.5C192.938 6.212 193.55 6.032 194.27 5.96C194.81 5.888 195.62 5.834 196.7 5.798C197.816 5.762 199.076 5.762 200.48 5.798C201.92 5.798 203.414 5.834 204.962 5.906C206.51 5.942 207.986 5.996 209.39 6.068C210.83 6.104 212.108 6.158 213.224 6.23C214.34 6.266 215.168 6.302 215.708 6.338C216.104 6.374 216.5 6.41 216.896 6.446C217.328 6.482 217.742 6.572 218.138 6.716C218.39 6.788 218.642 6.896 218.894 7.04C219.146 7.184 219.362 7.346 219.542 7.526C219.938 8.102 220.136 8.732 220.136 9.416C220.136 10.136 220.064 10.874 219.92 11.63C219.812 12.35 219.686 13.07 219.542 13.79C219.29 14.87 219.038 15.95 218.786 17.03C218.534 18.11 218.246 19.172 217.922 20.216C217.814 20.54 217.616 20.774 217.328 20.918C217.04 21.062 216.698 21.17 216.302 21.242C215.906 21.314 215.492 21.35 215.06 21.35C214.664 21.35 214.304 21.35 213.98 21.35C213.332 21.35 212.666 21.35 211.982 21.35C211.334 21.314 210.668 21.26 209.984 21.188C209.66 21.152 209.138 21.098 208.418 21.026C207.698 20.954 206.942 20.9 206.15 20.864C205.358 20.792 204.602 20.774 203.882 20.81C203.198 20.81 202.694 20.864 202.37 20.972C202.046 21.152 201.83 21.386 201.722 21.674C201.65 21.89 201.614 22.106 201.614 22.322C201.614 22.538 201.614 22.754 201.614 22.97C201.83 23.042 202.226 23.096 202.802 23.132C203.414 23.132 204.062 23.15 204.746 23.186C205.43 23.222 206.06 23.258 206.636 23.294C207.248 23.294 207.662 23.294 207.878 23.294C208.166 23.294 208.49 23.312 208.85 23.348C209.21 23.348 209.552 23.402 209.876 23.51C210.2 23.582 210.47 23.708 210.686 23.888C210.938 24.068 211.082 24.302 211.118 24.59C211.154 24.806 211.154 25.13 211.118 25.562C211.082 25.994 211.028 26.462 210.956 26.966C210.884 27.434 210.794 27.884 210.686 28.316C210.614 28.712 210.542 29.018 210.47 29.234C210.29 29.666 210.056 29.972 209.768 30.152C209.444 30.368 208.868 30.512 208.04 30.584C207.248 30.656 206.402 30.692 205.502 30.692C204.638 30.656 203.792 30.62 202.964 30.584C202.136 30.512 201.524 30.494 201.128 30.53C200.84 31.178 200.75 31.826 200.858 32.474C203.126 32.762 205.394 32.87 207.662 32.798C209.966 32.726 212.252 32.816 214.52 33.068C214.808 33.104 215.186 33.158 215.654 33.23C216.122 33.302 216.428 33.446 216.572 33.662C216.644 33.842 216.698 34.022 216.734 34.202C216.77 34.382 216.806 34.562 216.842 34.742C216.95 36.794 216.896 38.846 216.68 40.898C216.5 42.914 216.104 44.894 215.492 46.838C215.42 47.018 215.294 47.162 215.114 47.27C214.934 47.414 214.754 47.522 214.574 47.594C213.962 47.882 213.314 48.044 212.63 48.08C211.946 48.152 211.262 48.188 210.578 48.188Z"
            fill="#1E304E" />
    </g>
    <defs>
        <clipPath id="clip0_97_26">
            <rect width="225" height="53" fill="white" />
        </clipPath>
    </defs>
</svg>