<svg width="24" height="10" viewBox="0 0 24 10" fill="none" xmlns="http://www.w3.org/2000/svg">
<path d="M6.492 2.772C6.492 3.604 6.132 4.236 5.412 4.668C5.804 4.812 6.132 5.06 6.396 5.412C6.66 5.764 6.792 6.264 6.792 6.912C6.792 7.552 6.552 8.06 6.072 8.436C5.6 8.812 4.92 9 4.032 9H1.2C1.064 9 0.952 8.956 0.864 8.868C0.776 8.772 0.732 8.648 0.732 8.496V0.816C0.732 0.728 0.744 0.672 0.768 0.648C0.8 0.615999 0.86 0.599999 0.948 0.599999H3.684C5.556 0.599999 6.492 1.324 6.492 2.772ZM3.036 2.544V4.116H3.096C3.864 4.116 4.248 3.86 4.248 3.348C4.248 3.068 4.172 2.864 4.02 2.736C3.876 2.608 3.632 2.544 3.288 2.544H3.036ZM3.036 5.532V7.092H3.252C3.596 7.092 3.848 7.028 4.008 6.9C4.168 6.772 4.248 6.568 4.248 6.288C4.248 6.008 4.172 5.812 4.02 5.7C3.876 5.588 3.632 5.532 3.288 5.532H3.036ZM11.337 8.808C11.337 8.968 10.941 9.048 10.149 9.048C9.357 9.048 8.961 8.968 8.961 8.808V2.784H7.521C7.385 2.784 7.289 2.6 7.233 2.232C7.209 2.056 7.197 1.876 7.197 1.692C7.197 1.508 7.209 1.328 7.233 1.152C7.289 0.783999 7.385 0.599999 7.521 0.599999H12.741C12.877 0.599999 12.973 0.783999 13.029 1.152C13.053 1.328 13.065 1.508 13.065 1.692C13.065 1.876 13.053 2.056 13.029 2.232C12.973 2.6 12.877 2.784 12.741 2.784H11.337V8.808ZM14.0604 6.072C14.2124 6.192 14.4724 6.356 14.8404 6.564C15.2164 6.772 15.5724 6.876 15.9084 6.876C16.2524 6.876 16.4244 6.744 16.4244 6.48C16.4244 6.36 16.3764 6.256 16.2804 6.168C16.1844 6.072 16.0084 5.964 15.7524 5.844C15.4964 5.724 15.3044 5.632 15.1764 5.568C15.0484 5.496 14.8764 5.384 14.6604 5.232C14.4524 5.072 14.2924 4.908 14.1804 4.74C13.8604 4.284 13.7004 3.704 13.7004 3C13.7004 2.296 13.9604 1.704 14.4804 1.224C15.0084 0.736 15.6964 0.491999 16.5444 0.491999C17.1204 0.491999 17.6524 0.556 18.1404 0.684C18.6284 0.804 18.8804 0.964 18.8964 1.164C18.8964 1.188 18.8964 1.212 18.8964 1.236C18.8964 1.516 18.8084 1.872 18.6324 2.304C18.4564 2.728 18.3324 2.964 18.2604 3.012C17.7484 2.748 17.2884 2.616 16.8804 2.616C16.4804 2.616 16.2804 2.76 16.2804 3.048C16.2804 3.224 16.4284 3.38 16.7244 3.516C16.7884 3.548 16.8804 3.592 17.0004 3.648C17.1204 3.704 17.2564 3.772 17.4084 3.852C17.5684 3.924 17.7364 4.02 17.9124 4.14C18.0964 4.252 18.2924 4.404 18.5004 4.596C18.9244 4.996 19.1364 5.524 19.1364 6.18C19.1364 7.036 18.9004 7.736 18.4284 8.28C17.9564 8.824 17.2284 9.104 16.2444 9.12C15.7644 9.12 15.3284 9.08 14.9364 9C14.5524 8.92 14.2164 8.764 13.9284 8.532C13.6404 8.3 13.4964 8.02 13.4964 7.692C13.4964 7.364 13.5564 7.04 13.6764 6.72C13.7964 6.392 13.9244 6.176 14.0604 6.072ZM23.7954 8.796C23.7954 8.932 23.3874 9 22.5714 9C21.7634 9 21.3594 8.932 21.3594 8.796V2.88L20.0634 2.892C19.8234 2.892 19.7034 2.508 19.7034 1.74C19.7034 1.476 19.7274 1.22 19.7754 0.972C19.8314 0.724 19.9234 0.599999 20.0514 0.599999H23.3394C23.4754 0.599999 23.5834 0.631999 23.6634 0.696C23.7514 0.751999 23.7954 0.823999 23.7954 0.912V8.796Z" fill="#1E304E"/>
</svg>
